<?xml version="1.0" encoding="UTF-8" standalone="no"?>
<!-- Created with Inkscape (http://www.inkscape.org/) -->

<svg
   xmlns:dc="http://purl.org/dc/elements/1.1/"
   xmlns:cc="http://creativecommons.org/ns#"
   xmlns:rdf="http://www.w3.org/1999/02/22-rdf-syntax-ns#"
   xmlns:svg="http://www.w3.org/2000/svg"
   xmlns="http://www.w3.org/2000/svg"
   xmlns:sodipodi="http://sodipodi.sourceforge.net/DTD/sodipodi-0.dtd"
   xmlns:inkscape="http://www.inkscape.org/namespaces/inkscape"
   version="1.1"
   id="svg2"
   xml:space="preserve"
   width="518.14838"
   height="444.21774"
   viewBox="0 0 518.14838 444.21774"
   sodipodi:docname="logo.svg"
   inkscape:version="0.92.5 (2060ec1f9f, 2020-04-08)"><metadata
     id="metadata8"><rdf:RDF><cc:Work
         rdf:about=""><dc:format>image/svg+xml</dc:format><dc:type
           rdf:resource="http://purl.org/dc/dcmitype/StillImage" /><dc:title></dc:title></cc:Work></rdf:RDF></metadata><defs
     id="defs6"><clipPath
       clipPathUnits="userSpaceOnUse"
       id="clipPath22"><path
         d="m 1806.83,6529.15 c 132.3,188.92 494.77,163.36 809.59,-57.1 314.81,-220.45 462.77,-552.34 330.47,-741.26 -132.3,-188.93 -494.77,-163.36 -809.59,57.1 -314.81,220.45 -462.77,552.33 -330.47,741.26 z"
         id="path20"
         inkscape:connector-curvature="0"
         style="clip-rule:evenodd" /></clipPath><linearGradient
       x1="-128"
       y1="0"
       x2="128"
       y2="0"
       gradientUnits="userSpaceOnUse"
       gradientTransform="matrix(-4.517,3.163,1.916,2.737,2376.52,6129.89)"
       id="linearGradient32"><stop
         style="stop-opacity:1;stop-color:#0898df"
         offset="0"
         id="stop26" /><stop
         style="stop-opacity:1;stop-color:#73c2ed"
         offset="0.5"
         id="stop28" /><stop
         style="stop-opacity:1;stop-color:#e3f6fd"
         offset="1"
         id="stop30" /></linearGradient><clipPath
       clipPathUnits="userSpaceOnUse"
       id="clipPath42"><path
         d="m 2983.26,5106.3 c 143.63,-143.63 72.21,-447.93 -159.53,-679.67 -231.74,-231.74 -536.04,-303.16 -679.67,-159.53 -143.63,143.63 -72.2,447.93 159.53,679.67 231.74,231.74 536.04,303.16 679.67,159.53 z"
         id="path40"
         inkscape:connector-curvature="0"
         style="clip-rule:evenodd" /></clipPath><linearGradient
       x1="-128"
       y1="0"
       x2="128"
       y2="0"
       gradientUnits="userSpaceOnUse"
       gradientTransform="matrix(3.333,3.333,2.087,-2.087,2563.53,4686.32)"
       id="linearGradient52"><stop
         style="stop-opacity:1;stop-color:#0898df"
         offset="0"
         id="stop46" /><stop
         style="stop-opacity:1;stop-color:#73c2ed"
         offset="0.5"
         id="stop48" /><stop
         style="stop-opacity:1;stop-color:#e3f6fd"
         offset="1"
         id="stop50" /></linearGradient></defs><sodipodi:namedview
     pagecolor="#ffffff"
     bordercolor="#666666"
     borderopacity="1"
     objecttolerance="10"
     gridtolerance="10"
     guidetolerance="10"
     inkscape:pageopacity="0"
     inkscape:pageshadow="2"
     inkscape:window-width="1891"
     inkscape:window-height="989"
     id="namedview4"
     showgrid="false"
     inkscape:zoom="0.84096496"
     inkscape:cx="64.886148"
     inkscape:cy="287.20019"
     inkscape:window-x="0"
     inkscape:window-y="0"
     inkscape:window-maximized="0"
     inkscape:current-layer="g10" /><g
     id="g10"
     inkscape:groupmode="layer"
     inkscape:label="ink_ext_XXXXXX"
     transform="matrix(1.3333333,0,0,-1.3333333,-231.52297,861.98046)"><path
       inkscape:connector-curvature="0"
       id="path14"
       style="fill:#ffffff;fill-opacity:1;fill-rule:evenodd;stroke:none;stroke-width:0.1"
       d="M 3.5673307,-23.187649 H 598.84333 V 818.70236 H 3.5673307 Z" /><g
       id="g16"
       transform="matrix(0.1,0,0,0.1,-98.993426,32.105977)"><g
         clip-path="url(#clipPath22)"
         id="g18"><path
           inkscape:connector-curvature="0"
           id="path24"
           style="fill:#0898df;fill-opacity:1;fill-rule:nonzero;stroke:none"
           d="m 2709.45,5374.7 490.5,700.67 -1156.36,809.72 -490.49,-700.67 z" /><path
           inkscape:connector-curvature="0"
           id="path34"
           style="fill:url(#linearGradient32);fill-opacity:1;fill-rule:nonzero;stroke:none"
           d="m 1806.83,6529.15 c 132.3,188.92 494.77,163.36 809.59,-57.1 314.81,-220.45 462.77,-552.34 330.47,-741.26 -132.3,-188.93 -494.77,-163.36 -809.59,57.1 -314.81,220.45 -462.77,552.33 -330.47,741.26 z" /></g></g><g
       id="g36"
       transform="matrix(0.1,0,0,0.1,-98.993426,32.105977)"><g
         clip-path="url(#clipPath42)"
         id="g38"><path
           inkscape:connector-curvature="0"
           id="path44"
           style="fill:#0898df;fill-opacity:1;fill-rule:nonzero;stroke:none"
           d="m 1869.77,4526.83 534.27,-534.27 853.25,853.25 -534.27,534.27 z" /><path
           inkscape:connector-curvature="0"
           id="path54"
           style="fill:url(#linearGradient52);fill-opacity:1;fill-rule:nonzero;stroke:none"
           d="m 2983.26,5106.3 c 143.63,-143.63 72.21,-447.93 -159.53,-679.67 -231.74,-231.74 -536.04,-303.16 -679.67,-159.53 -143.63,143.63 -72.2,447.93 159.53,679.67 231.74,231.74 536.04,303.16 679.67,159.53 z" /></g></g><path
       inkscape:connector-curvature="0"
       id="path56"
       style="fill:none;stroke:#231f20;stroke-width:1;stroke-linecap:butt;stroke-linejoin:miter;stroke-miterlimit:10;stroke-dasharray:none;stroke-opacity:1"
       d="m 156.68257,700.77999 0.51,-254.91201" /><path
       inkscape:connector-curvature="0"
       id="path58"
       style="fill:#c8c7c7;fill-opacity:1;fill-rule:evenodd;stroke:none;stroke-width:0.1"
       d="m 241.32857,530.45299 h 84.5938 v 84.1727 h -84.5938 z" /><path
       inkscape:connector-curvature="0"
       id="path60"
       style="fill:none;stroke:#231f20;stroke-width:1;stroke-linecap:butt;stroke-linejoin:miter;stroke-miterlimit:10;stroke-dasharray:none;stroke-opacity:1"
       d="M 71.088573,530.45299 H 325.92257" /><path
       inkscape:connector-curvature="0"
       id="path62"
       style="fill:none;stroke:#231f20;stroke-width:1;stroke-linecap:butt;stroke-linejoin:miter;stroke-miterlimit:10;stroke-dasharray:none;stroke-opacity:1"
       d="m 240.68157,701.77799 0.51,-254.912" /><path
       inkscape:connector-curvature="0"
       id="path64"
       style="fill:none;stroke:#231f20;stroke-width:1;stroke-linecap:butt;stroke-linejoin:miter;stroke-miterlimit:10;stroke-dasharray:none;stroke-opacity:1"
       d="m 71.081573,614.35899 254.922997,0.051" /><g
       transform="translate(-98.993426,32.105977)"
       id="g66"><text
         id="text70"
         style="font-variant:normal;font-weight:normal;font-size:42px;font-family:Avenir;-inkscape-font-specification:Avenir-Book;writing-mode:lr-tb;fill:#0898df;fill-opacity:1;fill-rule:nonzero;stroke:none"
         transform="matrix(1,0,0,-1,349.892,458.83)"><tspan
           id="tspan68"
           y="0"
           x="0">A</tspan></text>
<text
         id="text74"
         style="font-variant:normal;font-weight:normal;font-size:40px;font-family:Avenir;-inkscape-font-specification:Avenir-Book;writing-mode:lr-tb;fill:#0898df;fill-opacity:1;fill-rule:nonzero;stroke:none"
         transform="matrix(1,0,0,-1,380.8037,458.83)"><tspan
           id="tspan72"
           sodipodi:role="line"
           y="0"
           x="0 21.280001 45.52 71.959999 96.199997 110.75719 137.19719 161.43719">chberger</tspan></text>
</g><g
       transform="translate(-98.993426,32.105977)"
       id="g76"><text
         id="text80"
         style="font-variant:normal;font-weight:normal;font-size:40px;font-family:Avenir;-inkscape-font-specification:Avenir-Book;writing-mode:lr-tb;fill:#231f20;fill-opacity:1;fill-rule:nonzero;stroke:none"
         transform="matrix(1,0,0,-1,346.772,420.83)"><tspan
           id="tspan78"
           sodipodi:role="line"
           y="0"
           x="0 37.599998 61.84 88.279999 99.879997 122.64 137.92 149.52 175.24001">Mediation</tspan></text>
</g><g
       transform="translate(-98.993426,32.105977)"
       id="g82"><text
         id="text88"
         style="font-variant:normal;font-weight:normal;font-size:40px;font-family:Avenir;-inkscape-font-specification:Avenir-Book;writing-mode:lr-tb;fill:#0898df;fill-opacity:1;fill-rule:nonzero;stroke:none"
         transform="matrix(1,0,0,-1,346.772,382.83)"><tspan
           id="tspan84"
           sodipodi:role="line"
           y="0"
           x="0 25.200001 50.919998 75.160004 89 100.6 112.2 133.48 148.75999">Konflikt-</tspan><tspan
           id="tspan86"
           sodipodi:role="line"
           y="38"
           x="0 26.200001 50.439999 65.720001 88.480003 103.76 128 152.24001">Beratung</tspan></text>
</g></g></svg>